<?xml version="1.0" encoding="iso-8859-1"?>
<!-- Uploaded to: SVG Repo, www.svgrepo.com, Generator: SVG Repo Mixer Tools -->
<svg fill="#000000" height="800px" width="800px" version="1.1" id="Layer_1" xmlns="http://www.w3.org/2000/svg" xmlns:xlink="http://www.w3.org/1999/xlink" 
	 viewBox="0 0 485 485" xml:space="preserve">
<g>
	<path d="M257.5,200v-55.002l166.229-0.025l57.485-57.485L423.729,30H257.5V0h-30v115.002l-166.229,0.025L3.785,172.513L61.271,230
		H227.5v255h30V314.998l166.229-0.025l57.485-57.485L423.729,200H257.5z M411.303,60l27.486,27.487l-27.487,27.487L257.5,114.998V60
		H411.303z M73.697,200l-27.486-27.487l27.487-27.487l153.802-0.023V200H73.697z M411.302,284.974L257.5,284.998V230h153.803
		l27.486,27.487L411.302,284.974z"/>
</g>
</svg>